<?xml version="1.0" encoding="UTF-8"?><svg xmlns="http://www.w3.org/2000/svg" xmlns:xlink="http://www.w3.org/1999/xlink" fill-opacity="1" color-rendering="auto" color-interpolation="auto" text-rendering="auto" stroke="black" stroke-linecap="square" width="451" stroke-miterlimit="10" shape-rendering="auto" stroke-opacity="1" fill="black" stroke-dasharray="none" font-weight="normal" stroke-width="1" height="225" font-family="'Dialog'" font-style="normal" stroke-linejoin="miter" font-size="12px" stroke-dashoffset="0" image-rendering="auto">
  <!--Generated by ySVG 2.6-->
  <defs id="genericDefs"/>
  <g>
    <defs id="defs1">
      <clipPath clipPathUnits="userSpaceOnUse" id="clipPath1">
        <path d="M0 0 L451 0 L451 225 L0 225 L0 0 Z"/>
      </clipPath>
      <clipPath clipPathUnits="userSpaceOnUse" id="clipPath2">
        <path d="M362 210 L813 210 L813 435 L362 435 L362 210 Z"/>
      </clipPath>
      <clipPath clipPathUnits="userSpaceOnUse" id="clipPath3">
        <path d="M664 231 L664 282 L798 282 L798 231 Z"/>
      </clipPath>
    </defs>
    <g fill="white" text-rendering="geometricPrecision" shape-rendering="geometricPrecision" transform="translate(-362,-210)" stroke="white">
      <rect x="362" width="451" height="225" y="210" clip-path="url(#clipPath2)" stroke="none"/>
    </g>
    <g fill="rgb(255,204,0)" text-rendering="geometricPrecision" shape-rendering="geometricPrecision" transform="matrix(1,0,0,1,-362,-210)" stroke="rgb(255,204,0)">
      <rect x="377" width="134" height="63" y="225" clip-path="url(#clipPath2)" stroke="none"/>
      <rect x="377" y="225" clip-path="url(#clipPath2)" fill="yellow" width="1" height="63" stroke="none"/>
      <rect x="378" y="225" clip-path="url(#clipPath2)" fill="yellow" width="132" height="1" stroke="none"/>
      <rect x="378" y="287" clip-path="url(#clipPath2)" fill="rgb(178,142,0)" width="133" height="1" stroke="none"/>
      <rect x="510" y="225" clip-path="url(#clipPath2)" fill="rgb(178,142,0)" width="1" height="62" stroke="none"/>
    </g>
    <g font-size="16px" stroke-linecap="butt" transform="matrix(1,0,0,1,-362,-210)" text-rendering="geometricPrecision" font-family="sans-serif" shape-rendering="geometricPrecision" stroke-miterlimit="1.45">
      <text x="401.4399" xml:space="preserve" y="262.708" clip-path="url(#clipPath2)" stroke="none">Interruptor</text>
    </g>
    <g fill="rgb(255,204,0)" text-rendering="geometricPrecision" shape-rendering="geometricPrecision" transform="matrix(1,0,0,1,-362,-210)" stroke="rgb(255,204,0)">
      <rect x="665" width="132" height="49" y="232" clip-path="url(#clipPath2)" stroke="none"/>
      <rect x="664" y="231" clip-path="url(#clipPath2)" fill="yellow" width="1" height="51" stroke="none"/>
      <rect x="665" y="231" clip-path="url(#clipPath2)" fill="yellow" width="132" height="1" stroke="none"/>
      <rect x="665" y="281" clip-path="url(#clipPath2)" fill="rgb(178,142,0)" width="133" height="1" stroke="none"/>
      <rect x="797" y="231" clip-path="url(#clipPath2)" fill="rgb(178,142,0)" width="1" height="50" stroke="none"/>
    </g>
    <g text-rendering="geometricPrecision" stroke-miterlimit="1.45" shape-rendering="geometricPrecision" font-family="sans-serif" transform="matrix(1,0,0,1,-362,-210)" stroke-linecap="butt">
      <text x="715.2379" xml:space="preserve" y="248.8281" clip-path="url(#clipPath3)" stroke="none">&lt;&lt;I&gt;&gt;</text>
      <text x="694.0319" font-size="16px" y="278.4482" clip-path="url(#clipPath3)" stroke="none" font-weight="bold" xml:space="preserve">Interface</text>
    </g>
    <g fill="rgb(255,204,0)" text-rendering="geometricPrecision" shape-rendering="geometricPrecision" transform="matrix(1,0,0,1,-362,-210)" stroke="rgb(255,204,0)">
      <rect x="664" width="134" height="63" y="357" clip-path="url(#clipPath2)" stroke="none"/>
      <rect x="664" y="357" clip-path="url(#clipPath2)" fill="yellow" width="1" height="63" stroke="none"/>
      <rect x="665" y="357" clip-path="url(#clipPath2)" fill="yellow" width="132" height="1" stroke="none"/>
      <rect x="665" y="419" clip-path="url(#clipPath2)" fill="rgb(178,142,0)" width="133" height="1" stroke="none"/>
      <rect x="797" y="357" clip-path="url(#clipPath2)" fill="rgb(178,142,0)" width="1" height="62" stroke="none"/>
    </g>
    <g font-size="16px" stroke-linecap="butt" transform="matrix(1,0,0,1,-362,-210)" text-rendering="geometricPrecision" font-family="sans-serif" shape-rendering="geometricPrecision" stroke-miterlimit="1.45">
      <text x="697.528" xml:space="preserve" y="394.708" clip-path="url(#clipPath2)" stroke="none">Bombillo</text>
      <path fill="none" d="M511.0204 256.5 L656.0018 256.5" clip-path="url(#clipPath2)"/>
      <path d="M664.0018 256.5 L652.0018 251.5 L655.0018 256.5 L652.0018 261.5 Z" stroke="none" clip-path="url(#clipPath2)"/>
      <text x="560.8838" xml:space="preserve" font-size="12px" y="291.156" clip-path="url(#clipPath2)" stroke="none">encender</text>
      <path fill="none" d="M731 357.0146 L731 296.9722" clip-path="url(#clipPath2)"/>
    </g>
    <g stroke-linecap="butt" transform="matrix(1,0,0,1,-362,-210)" fill="white" text-rendering="geometricPrecision" shape-rendering="geometricPrecision" stroke="white" stroke-miterlimit="1.45">
      <path d="M731 281.9722 L725 297.9722 L737 297.9722 Z" stroke="none" clip-path="url(#clipPath2)"/>
      <path fill="none" d="M731 281.9722 L725 297.9722 L737 297.9722 Z" clip-path="url(#clipPath2)" stroke="black"/>
    </g>
  </g>
</svg>
