<?xml version="1.0" encoding="UTF-8"?><svg xmlns="http://www.w3.org/2000/svg" xmlns:xlink="http://www.w3.org/1999/xlink" fill-opacity="1" color-rendering="auto" color-interpolation="auto" text-rendering="auto" stroke="black" stroke-linecap="square" width="568" stroke-miterlimit="10" shape-rendering="auto" stroke-opacity="1" fill="black" stroke-dasharray="none" font-weight="normal" stroke-width="1" height="226" font-family="'Dialog'" font-style="normal" stroke-linejoin="miter" font-size="12px" stroke-dashoffset="0" image-rendering="auto">
  <!--Generated by ySVG 2.6-->
  <defs id="genericDefs"/>
  <g>
    <defs id="defs1">
      <clipPath clipPathUnits="userSpaceOnUse" id="clipPath1">
        <path d="M0 0 L568 0 L568 226 L0 226 L0 0 Z"/>
      </clipPath>
      <clipPath clipPathUnits="userSpaceOnUse" id="clipPath2">
        <path d="M-214 -29 L354 -29 L354 197 L-214 197 L-214 -29 Z"/>
      </clipPath>
      <clipPath clipPathUnits="userSpaceOnUse" id="clipPath3">
        <path d="M25 -14 L25 14 L125 14 L125 -14 Z"/>
      </clipPath>
      <clipPath clipPathUnits="userSpaceOnUse" id="clipPath4">
        <path d="M-5 68 L-5 181 L155 181 L155 68 Z"/>
      </clipPath>
      <clipPath clipPathUnits="userSpaceOnUse" id="clipPath5">
        <path d="M-199 108 L-199 141 L-51 141 L-51 108 Z"/>
      </clipPath>
      <clipPath clipPathUnits="userSpaceOnUse" id="clipPath6">
        <path d="M211 108 L211 141 L339 141 L339 108 Z"/>
      </clipPath>
    </defs>
    <g fill="white" text-rendering="geometricPrecision" shape-rendering="geometricPrecision" transform="translate(214,29)" stroke="white">
      <rect x="-214" width="568" height="226" y="-29" clip-path="url(#clipPath2)" stroke="none"/>
    </g>
    <g fill="rgb(255,204,0)" text-rendering="geometricPrecision" shape-rendering="geometricPrecision" transform="matrix(1,0,0,1,214,29)" stroke="rgb(255,204,0)">
      <rect x="26" width="98" height="26" y="-13" clip-path="url(#clipPath2)" stroke="none"/>
      <rect x="25" y="-14" clip-path="url(#clipPath2)" fill="yellow" width="1" height="28" stroke="none"/>
      <rect x="26" y="-14" clip-path="url(#clipPath2)" fill="yellow" width="98" height="1" stroke="none"/>
      <rect x="26" y="13" clip-path="url(#clipPath2)" fill="rgb(178,142,0)" width="99" height="1" stroke="none"/>
      <rect x="124" y="-14" clip-path="url(#clipPath2)" fill="rgb(178,142,0)" width="1" height="27" stroke="none"/>
    </g>
    <g font-size="13px" stroke-linecap="butt" transform="matrix(1,0,0,1,214,29)" text-rendering="geometricPrecision" font-family="sans-serif" shape-rendering="geometricPrecision" font-weight="bold" stroke-miterlimit="1.45">
      <text x="59.023" xml:space="preserve" y="4.897" clip-path="url(#clipPath3)" stroke="none">Copy</text>
    </g>
    <g fill="rgb(255,204,0)" text-rendering="geometricPrecision" shape-rendering="geometricPrecision" transform="matrix(1,0,0,1,214,29)" stroke="rgb(255,204,0)">
      <rect x="-4" width="158" height="111" y="69" clip-path="url(#clipPath2)" stroke="none"/>
      <rect x="-5" y="68" clip-path="url(#clipPath2)" fill="yellow" width="1" height="113" stroke="none"/>
      <rect x="-4" y="68" clip-path="url(#clipPath2)" fill="yellow" width="158" height="1" stroke="none"/>
      <rect x="-4" y="180" clip-path="url(#clipPath2)" fill="rgb(178,142,0)" width="159" height="1" stroke="none"/>
      <rect x="154" y="68" clip-path="url(#clipPath2)" fill="rgb(178,142,0)" width="1" height="112" stroke="none"/>
    </g>
    <g text-rendering="geometricPrecision" stroke-miterlimit="1.45" shape-rendering="geometricPrecision" font-family="sans-serif" transform="matrix(1,0,0,1,214,29)" stroke-linecap="butt">
      <text x="59.2379" xml:space="preserve" y="86.3281" clip-path="url(#clipPath4)" stroke="none">&lt;&lt;I&gt;&gt;</text>
      <text x="63.625" font-size="13px" y="112.7411" clip-path="url(#clipPath4)" stroke="none" font-weight="bold" xml:space="preserve">File</text>
      <line stroke-linecap="square" clip-path="url(#clipPath4)" fill="none" x1="-4" x2="154" y1="121" y2="121" stroke-miterlimit="10"/>
      <line stroke-linecap="square" clip-path="url(#clipPath4)" fill="none" x1="-4" x2="154" y1="131" y2="131" stroke-miterlimit="10"/>
      <text x="0" xml:space="preserve" y="149.3782" clip-path="url(#clipPath4)" stroke="none">+getChar</text>
      <text x="0" xml:space="preserve" y="165.7223" clip-path="url(#clipPath4)" stroke="none">+putChar</text>
    </g>
    <g fill="rgb(255,204,0)" text-rendering="geometricPrecision" shape-rendering="geometricPrecision" transform="matrix(1,0,0,1,214,29)" stroke="rgb(255,204,0)">
      <rect x="-198" width="146" height="31" y="109" clip-path="url(#clipPath2)" stroke="none"/>
      <rect x="-199" y="108" clip-path="url(#clipPath2)" fill="yellow" width="1" height="33" stroke="none"/>
      <rect x="-198" y="108" clip-path="url(#clipPath2)" fill="yellow" width="146" height="1" stroke="none"/>
      <rect x="-198" y="140" clip-path="url(#clipPath2)" fill="rgb(178,142,0)" width="147" height="1" stroke="none"/>
      <rect x="-52" y="108" clip-path="url(#clipPath2)" fill="rgb(178,142,0)" width="1" height="32" stroke="none"/>
    </g>
    <g font-size="13px" stroke-linecap="butt" transform="matrix(1,0,0,1,214,29)" text-rendering="geometricPrecision" font-family="sans-serif" shape-rendering="geometricPrecision" font-weight="bold" stroke-miterlimit="1.45">
      <text x="-183.9225" xml:space="preserve" y="127.397" clip-path="url(#clipPath5)" stroke="none">KeyboardIODriver</text>
    </g>
    <g fill="rgb(255,204,0)" text-rendering="geometricPrecision" shape-rendering="geometricPrecision" transform="matrix(1,0,0,1,214,29)" stroke="rgb(255,204,0)">
      <rect x="212" width="126" height="31" y="109" clip-path="url(#clipPath2)" stroke="none"/>
      <rect x="211" y="108" clip-path="url(#clipPath2)" fill="yellow" width="1" height="33" stroke="none"/>
      <rect x="212" y="108" clip-path="url(#clipPath2)" fill="yellow" width="126" height="1" stroke="none"/>
      <rect x="212" y="140" clip-path="url(#clipPath2)" fill="rgb(178,142,0)" width="127" height="1" stroke="none"/>
      <rect x="338" y="108" clip-path="url(#clipPath2)" fill="rgb(178,142,0)" width="1" height="32" stroke="none"/>
    </g>
    <g font-size="13px" stroke-linecap="butt" transform="matrix(1,0,0,1,214,29)" text-rendering="geometricPrecision" font-family="sans-serif" shape-rendering="geometricPrecision" font-weight="bold" stroke-miterlimit="1.45">
      <text x="224.1635" xml:space="preserve" y="127.397" clip-path="url(#clipPath6)" stroke="none">PrinterIODriver</text>
      <path fill="none" d="M75 14.0266 L75 60.4734" clip-path="url(#clipPath2)"/>
      <path d="M75 68.4734 L80 56.4734 L75 59.4734 L70 56.4734 Z" stroke="none" clip-path="url(#clipPath2)"/>
      <path fill="none" d="M-51.0254 125 L-20.0274 125" clip-path="url(#clipPath2)"/>
    </g>
    <g stroke-linecap="butt" transform="matrix(1,0,0,1,214,29)" fill="white" text-rendering="geometricPrecision" shape-rendering="geometricPrecision" stroke="white" stroke-miterlimit="1.45">
      <path d="M-5.0274 125 L-21.0274 119 L-21.0274 131 Z" stroke="none" clip-path="url(#clipPath2)"/>
      <path fill="none" d="M-5.0274 125 L-21.0274 119 L-21.0274 131 Z" clip-path="url(#clipPath2)" stroke="black"/>
      <path fill="none" d="M210.9727 125 L170.0273 125" clip-path="url(#clipPath2)" stroke="black"/>
      <path d="M155.0273 125 L171.0273 131 L171.0273 119 Z" clip-path="url(#clipPath2)" stroke="none"/>
      <path fill="none" d="M155.0273 125 L171.0273 131 L171.0273 119 Z" clip-path="url(#clipPath2)" stroke="black"/>
    </g>
  </g>
</svg>
