<?xml version="1.0" encoding="UTF-8"?><svg xmlns="http://www.w3.org/2000/svg" xmlns:xlink="http://www.w3.org/1999/xlink" fill-opacity="1" color-rendering="auto" color-interpolation="auto" text-rendering="auto" stroke="black" stroke-linecap="square" width="435" stroke-miterlimit="10" shape-rendering="auto" stroke-opacity="1" fill="black" stroke-dasharray="none" font-weight="normal" stroke-width="1" height="102" font-family="'Dialog'" font-style="normal" stroke-linejoin="miter" font-size="12px" stroke-dashoffset="0" image-rendering="auto">
  <!--Generated by ySVG 2.6-->
  <defs id="genericDefs"/>
  <g>
    <defs id="defs1">
      <clipPath clipPathUnits="userSpaceOnUse" id="clipPath1">
        <path d="M0 0 L435 0 L435 102 L0 102 L0 0 Z"/>
      </clipPath>
      <clipPath clipPathUnits="userSpaceOnUse" id="clipPath2">
        <path d="M337 185 L772 185 L772 287 L337 287 L337 185 Z"/>
      </clipPath>
    </defs>
    <g fill="white" text-rendering="geometricPrecision" shape-rendering="geometricPrecision" transform="translate(-337,-185)" stroke="white">
      <rect x="337" width="435" height="102" y="185" clip-path="url(#clipPath2)" stroke="none"/>
    </g>
    <g fill="rgb(255,204,0)" text-rendering="geometricPrecision" shape-rendering="geometricPrecision" transform="matrix(1,0,0,1,-337,-185)" stroke="rgb(255,204,0)">
      <rect x="352" width="134" height="63" y="200" clip-path="url(#clipPath2)" stroke="none"/>
      <rect x="352" y="200" clip-path="url(#clipPath2)" fill="yellow" width="1" height="63" stroke="none"/>
      <rect x="353" y="200" clip-path="url(#clipPath2)" fill="yellow" width="132" height="1" stroke="none"/>
      <rect x="353" y="262" clip-path="url(#clipPath2)" fill="rgb(178,142,0)" width="133" height="1" stroke="none"/>
      <rect x="485" y="200" clip-path="url(#clipPath2)" fill="rgb(178,142,0)" width="1" height="62" stroke="none"/>
    </g>
    <g font-size="16px" stroke-linecap="butt" transform="matrix(1,0,0,1,-337,-185)" text-rendering="geometricPrecision" font-family="sans-serif" shape-rendering="geometricPrecision" stroke-miterlimit="1.45">
      <text x="376.4399" xml:space="preserve" y="237.708" clip-path="url(#clipPath2)" stroke="none">Interruptor</text>
    </g>
    <g fill="rgb(255,204,0)" text-rendering="geometricPrecision" shape-rendering="geometricPrecision" transform="matrix(1,0,0,1,-337,-185)" stroke="rgb(255,204,0)">
      <rect x="623" width="134" height="63" y="200" clip-path="url(#clipPath2)" stroke="none"/>
      <rect x="623" y="200" clip-path="url(#clipPath2)" fill="yellow" width="1" height="63" stroke="none"/>
      <rect x="624" y="200" clip-path="url(#clipPath2)" fill="yellow" width="132" height="1" stroke="none"/>
      <rect x="624" y="262" clip-path="url(#clipPath2)" fill="rgb(178,142,0)" width="133" height="1" stroke="none"/>
      <rect x="756" y="200" clip-path="url(#clipPath2)" fill="rgb(178,142,0)" width="1" height="62" stroke="none"/>
    </g>
    <g font-size="16px" stroke-linecap="butt" transform="matrix(1,0,0,1,-337,-185)" text-rendering="geometricPrecision" font-family="sans-serif" shape-rendering="geometricPrecision" stroke-miterlimit="1.45">
      <text x="656.528" xml:space="preserve" y="237.708" clip-path="url(#clipPath2)" stroke="none">Bombillo</text>
      <path fill="none" d="M485.9891 231.5 L615.0092 231.5" clip-path="url(#clipPath2)"/>
      <path d="M623.0092 231.5 L611.0092 226.5 L614.0092 231.5 L611.0092 236.5 Z" stroke="none" clip-path="url(#clipPath2)"/>
      <text x="527.8838" xml:space="preserve" font-size="12px" y="266.156" clip-path="url(#clipPath2)" stroke="none">encender</text>
    </g>
  </g>
</svg>
