<?xml version="1.0" encoding="UTF-8"?><svg xmlns="http://www.w3.org/2000/svg" xmlns:xlink="http://www.w3.org/1999/xlink" fill-opacity="1" color-rendering="auto" color-interpolation="auto" text-rendering="auto" stroke="black" stroke-linecap="square" width="243" stroke-miterlimit="10" shape-rendering="auto" stroke-opacity="1" fill="black" stroke-dasharray="none" font-weight="normal" stroke-width="1" height="452" font-family="'Dialog'" font-style="normal" stroke-linejoin="miter" font-size="12px" stroke-dashoffset="0" image-rendering="auto">
  <!--Generated by ySVG 2.6-->
  <defs id="genericDefs"/>
  <g>
    <defs id="defs1">
      <clipPath clipPathUnits="userSpaceOnUse" id="clipPath1">
        <path d="M0 0 L243 0 L243 452 L0 452 L0 0 Z"/>
      </clipPath>
      <clipPath clipPathUnits="userSpaceOnUse" id="clipPath2">
        <path d="M646 136 L889 136 L889 588 L646 588 L646 136 Z"/>
      </clipPath>
    </defs>
    <g fill="white" text-rendering="geometricPrecision" shape-rendering="geometricPrecision" transform="translate(-646,-136)" stroke="white">
      <rect x="646" width="243" height="452" y="136" clip-path="url(#clipPath2)" stroke="none"/>
    </g>
    <g fill="rgb(255,204,0)" text-rendering="geometricPrecision" shape-rendering="geometricPrecision" transform="matrix(1,0,0,1,-646,-136)" stroke="rgb(255,204,0)">
      <rect x="661" width="149" height="76" y="151" clip-path="url(#clipPath2)" stroke="none"/>
      <rect x="661" y="151" clip-path="url(#clipPath2)" fill="yellow" width="1" height="76" stroke="none"/>
      <rect x="662" y="151" clip-path="url(#clipPath2)" fill="yellow" width="147" height="1" stroke="none"/>
      <rect x="662" y="226" clip-path="url(#clipPath2)" fill="rgb(178,142,0)" width="148" height="1" stroke="none"/>
      <rect x="809" y="151" clip-path="url(#clipPath2)" fill="rgb(178,142,0)" width="1" height="75" stroke="none"/>
    </g>
    <g font-size="24px" stroke-linecap="butt" transform="matrix(1,0,0,1,-646,-136)" text-rendering="geometricPrecision" font-family="sans-serif" shape-rendering="geometricPrecision" stroke-miterlimit="1.45">
      <text x="681.8361" xml:space="preserve" y="198.312" clip-path="url(#clipPath2)" stroke="none">Complejo</text>
    </g>
    <g fill="rgb(255,204,0)" text-rendering="geometricPrecision" shape-rendering="geometricPrecision" transform="matrix(1,0,0,1,-646,-136)" stroke="rgb(255,204,0)">
      <rect x="661" width="149" height="76" y="320" clip-path="url(#clipPath2)" stroke="none"/>
      <rect x="661" y="320" clip-path="url(#clipPath2)" fill="yellow" width="1" height="76" stroke="none"/>
      <rect x="662" y="320" clip-path="url(#clipPath2)" fill="yellow" width="147" height="1" stroke="none"/>
      <rect x="662" y="395" clip-path="url(#clipPath2)" fill="rgb(178,142,0)" width="148" height="1" stroke="none"/>
      <rect x="809" y="320" clip-path="url(#clipPath2)" fill="rgb(178,142,0)" width="1" height="75" stroke="none"/>
    </g>
    <g font-size="24px" stroke-linecap="butt" transform="matrix(1,0,0,1,-646,-136)" text-rendering="geometricPrecision" font-family="sans-serif" shape-rendering="geometricPrecision" stroke-miterlimit="1.45">
      <text x="711.4401" xml:space="preserve" y="367.312" clip-path="url(#clipPath2)" stroke="none">Real</text>
    </g>
    <g fill="rgb(255,204,0)" text-rendering="geometricPrecision" shape-rendering="geometricPrecision" transform="matrix(1,0,0,1,-646,-136)" stroke="rgb(255,204,0)">
      <rect x="661" width="149" height="76" y="497" clip-path="url(#clipPath2)" stroke="none"/>
      <rect x="661" y="497" clip-path="url(#clipPath2)" fill="yellow" width="1" height="76" stroke="none"/>
      <rect x="662" y="497" clip-path="url(#clipPath2)" fill="yellow" width="147" height="1" stroke="none"/>
      <rect x="662" y="572" clip-path="url(#clipPath2)" fill="rgb(178,142,0)" width="148" height="1" stroke="none"/>
      <rect x="809" y="497" clip-path="url(#clipPath2)" fill="rgb(178,142,0)" width="1" height="75" stroke="none"/>
    </g>
    <g font-size="24px" stroke-linecap="butt" transform="matrix(1,0,0,1,-646,-136)" text-rendering="geometricPrecision" font-family="sans-serif" shape-rendering="geometricPrecision" stroke-miterlimit="1.45">
      <text x="698.0961" xml:space="preserve" y="544.312" clip-path="url(#clipPath2)" stroke="none">Entero</text>
      <path fill="none" d="M809.9911 189 L874 189 L874 358 L817.9911 358" clip-path="url(#clipPath2)"/>
      <path d="M809.9911 358 L821.9911 363 L818.9911 358 L821.9911 353 Z" stroke="none" clip-path="url(#clipPath2)"/>
      <text x="845.656" xml:space="preserve" font-size="12px" y="354.484" clip-path="url(#clipPath2)" stroke="none"> </text>
      <text x="843.784" xml:space="preserve" font-size="12px" y="370.8281" clip-path="url(#clipPath2)" stroke="none">2</text>
      <path fill="none" d="M735.5 319.9998 L735.5 242.027" clip-path="url(#clipPath2)"/>
    </g>
    <g stroke-linecap="butt" transform="matrix(1,0,0,1,-646,-136)" fill="white" text-rendering="geometricPrecision" shape-rendering="geometricPrecision" stroke="white" stroke-miterlimit="1.45">
      <path d="M735.5 227.027 L729.5 243.027 L741.5 243.027 Z" stroke="none" clip-path="url(#clipPath2)"/>
      <path fill="none" d="M735.5 227.027 L729.5 243.027 L741.5 243.027 Z" clip-path="url(#clipPath2)" stroke="black"/>
      <path fill="none" d="M735.5 497.0159 L735.5 410.9782" clip-path="url(#clipPath2)" stroke="black"/>
      <path d="M735.5 395.9782 L729.5 411.9782 L741.5 411.9782 Z" clip-path="url(#clipPath2)" stroke="none"/>
      <path fill="none" d="M735.5 395.9782 L729.5 411.9782 L741.5 411.9782 Z" clip-path="url(#clipPath2)" stroke="black"/>
    </g>
  </g>
</svg>
