<?xml version="1.0" encoding="UTF-8"?><svg xmlns="http://www.w3.org/2000/svg" xmlns:xlink="http://www.w3.org/1999/xlink" fill-opacity="1" color-rendering="auto" color-interpolation="auto" text-rendering="auto" stroke="black" stroke-linecap="square" width="454" stroke-miterlimit="10" shape-rendering="auto" stroke-opacity="1" fill="black" stroke-dasharray="none" font-weight="normal" stroke-width="1" height="315" font-family="'Dialog'" font-style="normal" stroke-linejoin="miter" font-size="12px" stroke-dashoffset="0" image-rendering="auto">
  <!--Generated by ySVG 2.6-->
  <defs id="genericDefs"/>
  <g>
    <defs id="defs1">
      <clipPath clipPathUnits="userSpaceOnUse" id="clipPath1">
        <path d="M0 0 L454 0 L454 315 L0 315 L0 0 Z"/>
      </clipPath>
      <clipPath clipPathUnits="userSpaceOnUse" id="clipPath2">
        <path d="M596 67 L1050 67 L1050 382 L596 382 L596 67 Z"/>
      </clipPath>
      <clipPath clipPathUnits="userSpaceOnUse" id="clipPath3">
        <path d="M883 82 L883 178 L1034 178 L1034 82 Z"/>
      </clipPath>
      <clipPath clipPathUnits="userSpaceOnUse" id="clipPath4">
        <path d="M883 281 L883 366 L1034 366 L1034 281 Z"/>
      </clipPath>
    </defs>
    <g fill="white" text-rendering="geometricPrecision" shape-rendering="geometricPrecision" transform="translate(-596,-67)" stroke="white">
      <rect x="596" width="454" height="315" y="67" clip-path="url(#clipPath2)" stroke="none"/>
    </g>
    <g fill="rgb(255,204,0)" text-rendering="geometricPrecision" shape-rendering="geometricPrecision" transform="matrix(1,0,0,1,-596,-67)" stroke="rgb(255,204,0)">
      <rect x="611.7619" width="131.2751" height="77.3598" y="92.4327" clip-path="url(#clipPath2)" stroke="none"/>
      <rect x="611.7619" y="92.4327" clip-path="url(#clipPath2)" fill="yellow" width="1" height="77.3598" stroke="none"/>
      <rect x="612.7619" y="92.4327" clip-path="url(#clipPath2)" fill="yellow" width="129.2751" height="1" stroke="none"/>
      <rect x="612.7619" y="168.7925" clip-path="url(#clipPath2)" fill="rgb(178,142,0)" width="130.2751" height="1" stroke="none"/>
      <rect x="742.037" y="92.4327" clip-path="url(#clipPath2)" fill="rgb(178,142,0)" width="1" height="76.3598" stroke="none"/>
    </g>
    <g font-size="18px" stroke-linecap="butt" transform="matrix(1,0,0,1,-596,-67)" text-rendering="geometricPrecision" font-family="sans-serif" shape-rendering="geometricPrecision" font-weight="bold" stroke-miterlimit="1.45">
      <text x="642.3717" xml:space="preserve" y="138.0965" clip-path="url(#clipPath2)" stroke="none">Usuario</text>
    </g>
    <g fill="rgb(255,204,0)" text-rendering="geometricPrecision" shape-rendering="geometricPrecision" transform="matrix(1,0,0,1,-596,-67)" stroke="rgb(255,204,0)">
      <rect x="884" width="149" height="94" y="83" clip-path="url(#clipPath2)" stroke="none"/>
      <rect x="883" y="82" clip-path="url(#clipPath2)" fill="yellow" width="1" height="96" stroke="none"/>
      <rect x="884" y="82" clip-path="url(#clipPath2)" fill="yellow" width="149" height="1" stroke="none"/>
      <rect x="884" y="177" clip-path="url(#clipPath2)" fill="rgb(178,142,0)" width="150" height="1" stroke="none"/>
      <rect x="1033" y="82" clip-path="url(#clipPath2)" fill="rgb(178,142,0)" width="1" height="95" stroke="none"/>
    </g>
    <g font-size="18px" stroke-linecap="butt" transform="matrix(1,0,0,1,-596,-67)" text-rendering="geometricPrecision" font-family="sans-serif" shape-rendering="geometricPrecision" font-weight="bold" stroke-miterlimit="1.45">
      <text x="907.9932" xml:space="preserve" y="107.062" clip-path="url(#clipPath3)" stroke="none">Rectángulo</text>
    </g>
    <g text-rendering="geometricPrecision" shape-rendering="geometricPrecision" transform="matrix(1,0,0,1,-596,-67)">
      <line y2="117" fill="none" x1="884" clip-path="url(#clipPath3)" x2="1033" y1="117"/>
      <line y2="127" fill="none" x1="884" clip-path="url(#clipPath3)" x2="1033" y1="127"/>
      <text stroke-linecap="butt" x="888.3235" y="145.164" clip-path="url(#clipPath3)" font-family="sans-serif" stroke="none" stroke-miterlimit="1.45" xml:space="preserve">+setH</text>
      <text stroke-linecap="butt" x="888.3235" y="161.5082" clip-path="url(#clipPath3)" font-family="sans-serif" stroke="none" stroke-miterlimit="1.45" xml:space="preserve">+setW</text>
      <rect x="884" y="282" clip-path="url(#clipPath2)" fill="rgb(255,204,0)" width="149" height="83" stroke="none"/>
      <rect x="883" y="281" clip-path="url(#clipPath2)" fill="yellow" width="1" height="85" stroke="none"/>
      <rect x="884" y="281" clip-path="url(#clipPath2)" fill="yellow" width="149" height="1" stroke="none"/>
      <rect x="884" y="365" clip-path="url(#clipPath2)" fill="rgb(178,142,0)" width="150" height="1" stroke="none"/>
      <rect x="1033" y="281" clip-path="url(#clipPath2)" fill="rgb(178,142,0)" width="1" height="84" stroke="none"/>
    </g>
    <g font-size="18px" stroke-linecap="butt" transform="matrix(1,0,0,1,-596,-67)" text-rendering="geometricPrecision" font-family="sans-serif" shape-rendering="geometricPrecision" font-weight="bold" stroke-miterlimit="1.45">
      <text x="915.4902" xml:space="preserve" y="305.8243" clip-path="url(#clipPath4)" stroke="none">Cuadrado</text>
    </g>
    <g text-rendering="geometricPrecision" shape-rendering="geometricPrecision" transform="matrix(1,0,0,1,-596,-67)">
      <line y2="316" fill="none" x1="884" clip-path="url(#clipPath4)" x2="1033" y1="316"/>
      <line y2="326" fill="none" x1="884" clip-path="url(#clipPath4)" x2="1033" y1="326"/>
      <text stroke-linecap="butt" x="888.3235" y="343.9264" clip-path="url(#clipPath4)" font-family="sans-serif" stroke="none" stroke-miterlimit="1.45" xml:space="preserve">+setSide</text>
      <path fill="none" stroke-miterlimit="1.45" d="M743.0352 131.1126 L878.2977 131.1126" clip-path="url(#clipPath2)" stroke-linecap="butt"/>
      <path stroke-miterlimit="1.45" d="M882.2977 131.1126 L870.2977 125.1126 L882.2977 131.1126 L870.2977 137.1126 Z" clip-path="url(#clipPath2)" stroke-linecap="butt" stroke="none"/>
      <path fill="none" d="M882.2977 131.1126 L870.2977 125.1126 L882.2977 131.1126 L870.2977 137.1126 Z" clip-path="url(#clipPath2)"/>
      <path fill="none" stroke-miterlimit="1.45" d="M959.059 281.5481 L959.059 194.4091" clip-path="url(#clipPath2)" stroke-linecap="butt"/>
    </g>
    <g stroke-linecap="butt" transform="matrix(1,0,0,1,-596,-67)" fill="white" text-rendering="geometricPrecision" shape-rendering="geometricPrecision" stroke="white" stroke-miterlimit="1.45">
      <path d="M959.059 179.4091 L953.059 195.4091 L965.059 195.4091 Z" stroke="none" clip-path="url(#clipPath2)"/>
      <path fill="none" d="M959.059 179.4091 L953.059 195.4091 L965.059 195.4091 Z" clip-path="url(#clipPath2)" stroke="black"/>
    </g>
  </g>
</svg>
