<?xml version="1.0" encoding="UTF-8"?><svg xmlns="http://www.w3.org/2000/svg" xmlns:xlink="http://www.w3.org/1999/xlink" fill-opacity="1" color-rendering="auto" color-interpolation="auto" text-rendering="auto" stroke="black" stroke-linecap="square" width="659" stroke-miterlimit="10" shape-rendering="auto" stroke-opacity="1" fill="black" stroke-dasharray="none" font-weight="normal" stroke-width="1" height="248" font-family="'Dialog'" font-style="normal" stroke-linejoin="miter" font-size="12px" stroke-dashoffset="0" image-rendering="auto">
  <!--Generated by ySVG 2.6-->
  <defs id="genericDefs"/>
  <g>
    <defs id="defs1">
      <clipPath clipPathUnits="userSpaceOnUse" id="clipPath1">
        <path d="M0 0 L659 0 L659 248 L0 248 L0 0 Z"/>
      </clipPath>
      <clipPath clipPathUnits="userSpaceOnUse" id="clipPath2">
        <path d="M422 186 L1081 186 L1081 434 L422 434 L422 186 Z"/>
      </clipPath>
      <clipPath clipPathUnits="userSpaceOnUse" id="clipPath3">
        <path d="M724 207 L724 258 L858 258 L858 207 Z"/>
      </clipPath>
    </defs>
    <g fill="white" text-rendering="geometricPrecision" shape-rendering="geometricPrecision" transform="translate(-422,-186)" stroke="white">
      <rect x="422" width="659" height="248" y="186" clip-path="url(#clipPath2)" stroke="none"/>
    </g>
    <g fill="rgb(255,204,0)" text-rendering="geometricPrecision" shape-rendering="geometricPrecision" transform="matrix(1,0,0,1,-422,-186)" stroke="rgb(255,204,0)">
      <rect x="437" width="134" height="63" y="201" clip-path="url(#clipPath2)" stroke="none"/>
      <rect x="437" y="201" clip-path="url(#clipPath2)" fill="yellow" width="1" height="63" stroke="none"/>
      <rect x="438" y="201" clip-path="url(#clipPath2)" fill="yellow" width="132" height="1" stroke="none"/>
      <rect x="438" y="263" clip-path="url(#clipPath2)" fill="rgb(178,142,0)" width="133" height="1" stroke="none"/>
      <rect x="570" y="201" clip-path="url(#clipPath2)" fill="rgb(178,142,0)" width="1" height="62" stroke="none"/>
    </g>
    <g font-size="16px" stroke-linecap="butt" transform="matrix(1,0,0,1,-422,-186)" text-rendering="geometricPrecision" font-family="sans-serif" shape-rendering="geometricPrecision" stroke-miterlimit="1.45">
      <text x="461.4399" xml:space="preserve" y="238.708" clip-path="url(#clipPath2)" stroke="none">Interruptor</text>
    </g>
    <g fill="rgb(255,204,0)" text-rendering="geometricPrecision" shape-rendering="geometricPrecision" transform="matrix(1,0,0,1,-422,-186)" stroke="rgb(255,204,0)">
      <rect x="725" width="132" height="49" y="208" clip-path="url(#clipPath2)" stroke="none"/>
      <rect x="724" y="207" clip-path="url(#clipPath2)" fill="yellow" width="1" height="51" stroke="none"/>
      <rect x="725" y="207" clip-path="url(#clipPath2)" fill="yellow" width="132" height="1" stroke="none"/>
      <rect x="725" y="257" clip-path="url(#clipPath2)" fill="rgb(178,142,0)" width="133" height="1" stroke="none"/>
      <rect x="857" y="207" clip-path="url(#clipPath2)" fill="rgb(178,142,0)" width="1" height="50" stroke="none"/>
    </g>
    <g text-rendering="geometricPrecision" stroke-miterlimit="1.45" shape-rendering="geometricPrecision" font-family="sans-serif" transform="matrix(1,0,0,1,-422,-186)" stroke-linecap="butt">
      <text x="775.2379" xml:space="preserve" y="224.8281" clip-path="url(#clipPath3)" stroke="none">&lt;&lt;I&gt;&gt;</text>
      <text x="754.0319" font-size="16px" y="254.4482" clip-path="url(#clipPath3)" stroke="none" font-weight="bold" xml:space="preserve">Interface</text>
    </g>
    <g fill="rgb(255,204,0)" text-rendering="geometricPrecision" shape-rendering="geometricPrecision" transform="matrix(1,0,0,1,-422,-186)" stroke="rgb(255,204,0)">
      <rect x="630" width="134" height="63" y="356" clip-path="url(#clipPath2)" stroke="none"/>
      <rect x="630" y="356" clip-path="url(#clipPath2)" fill="yellow" width="1" height="63" stroke="none"/>
      <rect x="631" y="356" clip-path="url(#clipPath2)" fill="yellow" width="132" height="1" stroke="none"/>
      <rect x="631" y="418" clip-path="url(#clipPath2)" fill="rgb(178,142,0)" width="133" height="1" stroke="none"/>
      <rect x="763" y="356" clip-path="url(#clipPath2)" fill="rgb(178,142,0)" width="1" height="62" stroke="none"/>
    </g>
    <g font-size="16px" stroke-linecap="butt" transform="matrix(1,0,0,1,-422,-186)" text-rendering="geometricPrecision" font-family="sans-serif" shape-rendering="geometricPrecision" stroke-miterlimit="1.45">
      <text x="663.528" xml:space="preserve" y="393.708" clip-path="url(#clipPath2)" stroke="none">Bombillo</text>
    </g>
    <g fill="rgb(255,204,0)" text-rendering="geometricPrecision" shape-rendering="geometricPrecision" transform="matrix(1,0,0,1,-422,-186)" stroke="rgb(255,204,0)">
      <rect x="781" width="134" height="63" y="356" clip-path="url(#clipPath2)" stroke="none"/>
      <rect x="781" y="356" clip-path="url(#clipPath2)" fill="yellow" width="1" height="63" stroke="none"/>
      <rect x="782" y="356" clip-path="url(#clipPath2)" fill="yellow" width="132" height="1" stroke="none"/>
      <rect x="782" y="418" clip-path="url(#clipPath2)" fill="rgb(178,142,0)" width="133" height="1" stroke="none"/>
      <rect x="914" y="356" clip-path="url(#clipPath2)" fill="rgb(178,142,0)" width="1" height="62" stroke="none"/>
    </g>
    <g font-size="16px" stroke-linecap="butt" transform="matrix(1,0,0,1,-422,-186)" text-rendering="geometricPrecision" font-family="sans-serif" shape-rendering="geometricPrecision" stroke-miterlimit="1.45">
      <text x="810.9199" xml:space="preserve" y="393.708" clip-path="url(#clipPath2)" stroke="none">Licuadora</text>
    </g>
    <g fill="rgb(255,204,0)" text-rendering="geometricPrecision" shape-rendering="geometricPrecision" transform="matrix(1,0,0,1,-422,-186)" stroke="rgb(255,204,0)">
      <rect x="932" width="134" height="63" y="356" clip-path="url(#clipPath2)" stroke="none"/>
      <rect x="932" y="356" clip-path="url(#clipPath2)" fill="yellow" width="1" height="63" stroke="none"/>
      <rect x="933" y="356" clip-path="url(#clipPath2)" fill="yellow" width="132" height="1" stroke="none"/>
      <rect x="933" y="418" clip-path="url(#clipPath2)" fill="rgb(178,142,0)" width="133" height="1" stroke="none"/>
      <rect x="1065" y="356" clip-path="url(#clipPath2)" fill="rgb(178,142,0)" width="1" height="62" stroke="none"/>
    </g>
    <g font-size="16px" stroke-linecap="butt" transform="matrix(1,0,0,1,-422,-186)" text-rendering="geometricPrecision" font-family="sans-serif" shape-rendering="geometricPrecision" stroke-miterlimit="1.45">
      <text x="960.1759" xml:space="preserve" y="393.708" clip-path="url(#clipPath2)" stroke="none">Ventilador</text>
    </g>
    <g fill="rgb(255,204,0)" text-rendering="geometricPrecision" shape-rendering="geometricPrecision" transform="matrix(1,0,0,1,-422,-186)" stroke="rgb(255,204,0)">
      <rect x="479" width="134" height="63" y="356" clip-path="url(#clipPath2)" stroke="none"/>
      <rect x="479" y="356" clip-path="url(#clipPath2)" fill="yellow" width="1" height="63" stroke="none"/>
      <rect x="480" y="356" clip-path="url(#clipPath2)" fill="yellow" width="132" height="1" stroke="none"/>
      <rect x="480" y="418" clip-path="url(#clipPath2)" fill="rgb(178,142,0)" width="133" height="1" stroke="none"/>
      <rect x="612" y="356" clip-path="url(#clipPath2)" fill="rgb(178,142,0)" width="1" height="62" stroke="none"/>
    </g>
    <g font-size="16px" stroke-linecap="butt" transform="matrix(1,0,0,1,-422,-186)" text-rendering="geometricPrecision" font-family="sans-serif" shape-rendering="geometricPrecision" stroke-miterlimit="1.45">
      <text x="536.752" xml:space="preserve" y="393.708" clip-path="url(#clipPath2)" stroke="none">TV</text>
      <path fill="none" d="M571.0204 232.5 L716.0018 232.5" clip-path="url(#clipPath2)"/>
      <path d="M724.0018 232.5 L712.0018 227.5 L715.0018 232.5 L712.0018 237.5 Z" stroke="none" clip-path="url(#clipPath2)"/>
      <text x="620.8838" xml:space="preserve" font-size="12px" y="267.156" clip-path="url(#clipPath2)" stroke="none">encender</text>
      <path fill="none" d="M716.1167 355.9778 L767.7735 270.7991" clip-path="url(#clipPath2)"/>
    </g>
    <g stroke-linecap="butt" transform="matrix(1,0,0,1,-422,-186)" fill="white" text-rendering="geometricPrecision" shape-rendering="geometricPrecision" stroke="white" stroke-miterlimit="1.45">
      <path d="M775.5516 257.9733 L762.1246 268.5428 L772.3853 274.7654 Z" stroke="none" clip-path="url(#clipPath2)"/>
      <path fill="none" d="M775.5516 257.9733 L762.1246 268.5428 L772.3853 274.7654 Z" clip-path="url(#clipPath2)" stroke="black"/>
      <path fill="none" d="M836.408 355.9778 L805.5448 272.0516" clip-path="url(#clipPath2)" stroke="black"/>
      <path d="M800.3676 257.9733 L800.2587 275.061 L811.5212 270.9193 Z" clip-path="url(#clipPath2)" stroke="none"/>
      <path fill="none" d="M800.3676 257.9733 L800.2587 275.061 L811.5212 270.9193 Z" clip-path="url(#clipPath2)" stroke="black"/>
      <path fill="none" d="M956.7246 355.9967 L837.2367 266.9553" clip-path="url(#clipPath2)" stroke="black"/>
      <path d="M825.209 257.9923 L834.4533 272.3639 L841.6237 262.7417 Z" clip-path="url(#clipPath2)" stroke="none"/>
      <path fill="none" d="M825.209 257.9923 L834.4533 272.3639 L841.6237 262.7417 Z" clip-path="url(#clipPath2)" stroke="black"/>
      <path fill="none" d="M595.7955 355.9967 L738.0295 266.0119" clip-path="url(#clipPath2)" stroke="black"/>
      <path d="M750.7057 257.9923 L733.9766 261.4761 L740.3923 271.617 Z" clip-path="url(#clipPath2)" stroke="none"/>
      <path fill="none" d="M750.7057 257.9923 L733.9766 261.4761 L740.3923 271.617 Z" clip-path="url(#clipPath2)" stroke="black"/>
    </g>
  </g>
</svg>
