<?xml version="1.0" encoding="UTF-8"?><svg xmlns="http://www.w3.org/2000/svg" xmlns:xlink="http://www.w3.org/1999/xlink" fill-opacity="1" color-rendering="auto" color-interpolation="auto" text-rendering="auto" stroke="black" stroke-linecap="square" width="449" stroke-miterlimit="10" shape-rendering="auto" stroke-opacity="1" fill="black" stroke-dasharray="none" font-weight="normal" stroke-width="1" height="283" font-family="'Dialog'" font-style="normal" stroke-linejoin="miter" font-size="12px" stroke-dashoffset="0" image-rendering="auto">
  <!--Generated by ySVG 2.6-->
  <defs id="genericDefs"/>
  <g>
    <defs id="defs1">
      <clipPath clipPathUnits="userSpaceOnUse" id="clipPath1">
        <path d="M0 0 L449 0 L449 283 L0 283 L0 0 Z"/>
      </clipPath>
      <clipPath clipPathUnits="userSpaceOnUse" id="clipPath2">
        <path d="M621 111 L1070 111 L1070 394 L621 394 L621 111 Z"/>
      </clipPath>
    </defs>
    <g fill="white" text-rendering="geometricPrecision" shape-rendering="geometricPrecision" transform="translate(-621,-111)" stroke="white">
      <rect x="621" width="449" height="283" y="111" clip-path="url(#clipPath2)" stroke="none"/>
    </g>
    <g fill="rgb(255,204,0)" text-rendering="geometricPrecision" shape-rendering="geometricPrecision" transform="matrix(1,0,0,1,-621,-111)" stroke="rgb(255,204,0)">
      <rect x="636" width="149" height="76" y="126" clip-path="url(#clipPath2)" stroke="none"/>
      <rect x="636" y="126" clip-path="url(#clipPath2)" fill="yellow" width="1" height="76" stroke="none"/>
      <rect x="637" y="126" clip-path="url(#clipPath2)" fill="yellow" width="147" height="1" stroke="none"/>
      <rect x="637" y="201" clip-path="url(#clipPath2)" fill="rgb(178,142,0)" width="148" height="1" stroke="none"/>
      <rect x="784" y="126" clip-path="url(#clipPath2)" fill="rgb(178,142,0)" width="1" height="75" stroke="none"/>
    </g>
    <g font-size="24px" stroke-linecap="butt" transform="matrix(1,0,0,1,-621,-111)" text-rendering="geometricPrecision" font-family="sans-serif" shape-rendering="geometricPrecision" stroke-miterlimit="1.45">
      <text x="703.24" xml:space="preserve" y="173.312" clip-path="url(#clipPath2)" stroke="none">P</text>
    </g>
    <g fill="rgb(255,204,0)" text-rendering="geometricPrecision" shape-rendering="geometricPrecision" transform="matrix(1,0,0,1,-621,-111)" stroke="rgb(255,204,0)">
      <rect x="906" width="149" height="76" y="126" clip-path="url(#clipPath2)" stroke="none"/>
      <rect x="906" y="126" clip-path="url(#clipPath2)" fill="yellow" width="1" height="76" stroke="none"/>
      <rect x="907" y="126" clip-path="url(#clipPath2)" fill="yellow" width="147" height="1" stroke="none"/>
      <rect x="907" y="201" clip-path="url(#clipPath2)" fill="rgb(178,142,0)" width="148" height="1" stroke="none"/>
      <rect x="1054" y="126" clip-path="url(#clipPath2)" fill="rgb(178,142,0)" width="1" height="75" stroke="none"/>
    </g>
    <g font-size="24px" stroke-linecap="butt" transform="matrix(1,0,0,1,-621,-111)" text-rendering="geometricPrecision" font-family="sans-serif" shape-rendering="geometricPrecision" stroke-miterlimit="1.45">
      <text x="973.828" xml:space="preserve" y="173.312" clip-path="url(#clipPath2)" stroke="none">T</text>
    </g>
    <g fill="rgb(255,204,0)" text-rendering="geometricPrecision" shape-rendering="geometricPrecision" transform="matrix(1,0,0,1,-621,-111)" stroke="rgb(255,204,0)">
      <rect x="906" width="149" height="76" y="303" clip-path="url(#clipPath2)" stroke="none"/>
      <rect x="906" y="303" clip-path="url(#clipPath2)" fill="yellow" width="1" height="76" stroke="none"/>
      <rect x="907" y="303" clip-path="url(#clipPath2)" fill="yellow" width="147" height="1" stroke="none"/>
      <rect x="907" y="378" clip-path="url(#clipPath2)" fill="rgb(178,142,0)" width="148" height="1" stroke="none"/>
      <rect x="1054" y="303" clip-path="url(#clipPath2)" fill="rgb(178,142,0)" width="1" height="75" stroke="none"/>
    </g>
    <g font-size="24px" stroke-linecap="butt" transform="matrix(1,0,0,1,-621,-111)" text-rendering="geometricPrecision" font-family="sans-serif" shape-rendering="geometricPrecision" stroke-miterlimit="1.45">
      <text x="973.912" xml:space="preserve" y="350.312" clip-path="url(#clipPath2)" stroke="none">S</text>
      <path fill="none" d="M785.0203 164 L901.002 164" clip-path="url(#clipPath2)"/>
      <path d="M905.002 164 L893.002 158 L905.002 164 L893.002 170 Z" stroke="none" clip-path="url(#clipPath2)"/>
    </g>
    <g text-rendering="geometricPrecision" shape-rendering="geometricPrecision" transform="matrix(1,0,0,1,-621,-111)">
      <path fill="none" d="M905.002 164 L893.002 158 L905.002 164 L893.002 170 Z" clip-path="url(#clipPath2)"/>
      <path fill="none" stroke-miterlimit="1.45" d="M980.5 303.0159 L980.5 216.9782" clip-path="url(#clipPath2)" stroke-linecap="butt"/>
    </g>
    <g stroke-linecap="butt" transform="matrix(1,0,0,1,-621,-111)" fill="white" text-rendering="geometricPrecision" shape-rendering="geometricPrecision" stroke="white" stroke-miterlimit="1.45">
      <path d="M980.5 201.9782 L974.5 217.9782 L986.5 217.9782 Z" stroke="none" clip-path="url(#clipPath2)"/>
      <path fill="none" d="M980.5 201.9782 L974.5 217.9782 L986.5 217.9782 Z" clip-path="url(#clipPath2)" stroke="black"/>
    </g>
  </g>
</svg>
