<?xml version="1.0" encoding="UTF-8"?><svg xmlns="http://www.w3.org/2000/svg" xmlns:xlink="http://www.w3.org/1999/xlink" fill-opacity="1" color-rendering="auto" color-interpolation="auto" text-rendering="auto" stroke="black" stroke-linecap="square" width="620" stroke-miterlimit="10" shape-rendering="auto" stroke-opacity="1" fill="black" stroke-dasharray="none" font-weight="normal" stroke-width="1" height="539" font-family="'Dialog'" font-style="normal" stroke-linejoin="miter" font-size="12px" stroke-dashoffset="0" image-rendering="auto">
  <!--Generated by ySVG 2.6-->
  <defs id="genericDefs"/>
  <g>
    <defs id="defs1">
      <clipPath clipPathUnits="userSpaceOnUse" id="clipPath1">
        <path d="M0 0 L620 0 L620 539 L0 539 L0 0 Z"/>
      </clipPath>
      <clipPath clipPathUnits="userSpaceOnUse" id="clipPath2">
        <path d="M-15 -15 L605 -15 L605 524 L-15 524 L-15 -15 Z"/>
      </clipPath>
    </defs>
    <g fill="white" text-rendering="geometricPrecision" shape-rendering="geometricPrecision" transform="translate(15,15)" stroke="white">
      <rect x="-15" width="620" height="539" y="-15" clip-path="url(#clipPath2)" stroke="none"/>
    </g>
    <g fill="rgb(255,204,0)" text-rendering="geometricPrecision" shape-rendering="geometricPrecision" transform="matrix(1,0,0,1,15,15)" stroke="rgb(255,204,0)">
      <rect x="222.957" width="71" height="42" y="215.5617" clip-path="url(#clipPath2)" stroke="none"/>
      <rect x="222.957" y="215.5617" clip-path="url(#clipPath2)" fill="yellow" width="1" height="42" stroke="none"/>
      <rect x="223.957" y="215.5617" clip-path="url(#clipPath2)" fill="yellow" width="69" height="1" stroke="none"/>
      <rect x="223.957" y="256.5617" clip-path="url(#clipPath2)" fill="rgb(178,142,0)" width="70" height="1" stroke="none"/>
      <rect x="292.957" y="215.5617" clip-path="url(#clipPath2)" fill="rgb(178,142,0)" width="1" height="41" stroke="none"/>
    </g>
    <g font-size="16px" stroke-linecap="butt" transform="matrix(1,0,0,1,15,15)" text-rendering="geometricPrecision" font-family="sans-serif" shape-rendering="geometricPrecision" stroke-miterlimit="1.45">
      <text x="237.2169" xml:space="preserve" y="242.7697" clip-path="url(#clipPath2)" stroke="none">Tarea</text>
    </g>
    <g fill="rgb(255,204,0)" text-rendering="geometricPrecision" shape-rendering="geometricPrecision" transform="matrix(1,0,0,1,15,15)" stroke="rgb(255,204,0)">
      <rect x="416.7212" width="173" height="47" y="193.2315" clip-path="url(#clipPath2)" stroke="none"/>
      <rect x="416.7212" y="193.2315" clip-path="url(#clipPath2)" fill="yellow" width="1" height="47" stroke="none"/>
      <rect x="417.7212" y="193.2315" clip-path="url(#clipPath2)" fill="yellow" width="171" height="1" stroke="none"/>
      <rect x="417.7212" y="239.2315" clip-path="url(#clipPath2)" fill="rgb(178,142,0)" width="172" height="1" stroke="none"/>
      <rect x="588.7212" y="193.2315" clip-path="url(#clipPath2)" fill="rgb(178,142,0)" width="1" height="46" stroke="none"/>
    </g>
    <g font-size="16px" stroke-linecap="butt" transform="matrix(1,0,0,1,15,15)" text-rendering="geometricPrecision" font-family="sans-serif" shape-rendering="geometricPrecision" stroke-miterlimit="1.45">
      <text x="424.4851" xml:space="preserve" y="222.9395" clip-path="url(#clipPath2)" stroke="none">Trayectoria del Papel</text>
    </g>
    <g fill="rgb(255,204,0)" text-rendering="geometricPrecision" shape-rendering="geometricPrecision" transform="matrix(1,0,0,1,15,15)" stroke="rgb(255,204,0)">
      <rect x="84.4852" width="205" height="42" y="466.1277" clip-path="url(#clipPath2)" stroke="none"/>
      <rect x="84.4852" y="466.1277" clip-path="url(#clipPath2)" fill="yellow" width="1" height="42" stroke="none"/>
      <rect x="85.4852" y="466.1277" clip-path="url(#clipPath2)" fill="yellow" width="203" height="1" stroke="none"/>
      <rect x="85.4852" y="507.1277" clip-path="url(#clipPath2)" fill="rgb(178,142,0)" width="204" height="1" stroke="none"/>
      <rect x="288.4852" y="466.1277" clip-path="url(#clipPath2)" fill="rgb(178,142,0)" width="1" height="41" stroke="none"/>
    </g>
    <g font-size="16px" stroke-linecap="butt" transform="matrix(1,0,0,1,15,15)" text-rendering="geometricPrecision" font-family="sans-serif" shape-rendering="geometricPrecision" stroke-miterlimit="1.45">
      <text x="100.865" xml:space="preserve" y="493.3357" clip-path="url(#clipPath2)" stroke="none">Receptor de Fotografía</text>
    </g>
    <g fill="rgb(255,204,0)" text-rendering="geometricPrecision" shape-rendering="geometricPrecision" transform="matrix(1,0,0,1,15,15)" stroke="rgb(255,204,0)">
      <rect x="28.1067" width="80" height="42" y="280.4565" clip-path="url(#clipPath2)" stroke="none"/>
      <rect x="28.1067" y="280.4565" clip-path="url(#clipPath2)" fill="yellow" width="1" height="42" stroke="none"/>
      <rect x="29.1067" y="280.4565" clip-path="url(#clipPath2)" fill="yellow" width="78" height="1" stroke="none"/>
      <rect x="29.1067" y="321.4565" clip-path="url(#clipPath2)" fill="rgb(178,142,0)" width="79" height="1" stroke="none"/>
      <rect x="107.1067" y="280.4565" clip-path="url(#clipPath2)" fill="rgb(178,142,0)" width="1" height="41" stroke="none"/>
    </g>
    <g font-size="16px" stroke-linecap="butt" transform="matrix(1,0,0,1,15,15)" text-rendering="geometricPrecision" font-family="sans-serif" shape-rendering="geometricPrecision" stroke-miterlimit="1.45">
      <text x="36.5947" xml:space="preserve" y="307.6646" clip-path="url(#clipPath2)" stroke="none">Inversor</text>
    </g>
    <g fill="rgb(255,204,0)" text-rendering="geometricPrecision" shape-rendering="geometricPrecision" transform="matrix(1,0,0,1,15,15)" stroke="rgb(255,204,0)">
      <rect x="321.7613" width="93" height="42" y="40.1408" clip-path="url(#clipPath2)" stroke="none"/>
      <rect x="321.7613" y="40.1408" clip-path="url(#clipPath2)" fill="yellow" width="1" height="42" stroke="none"/>
      <rect x="322.7613" y="40.1408" clip-path="url(#clipPath2)" fill="yellow" width="91" height="1" stroke="none"/>
      <rect x="322.7613" y="81.1408" clip-path="url(#clipPath2)" fill="rgb(178,142,0)" width="92" height="1" stroke="none"/>
      <rect x="413.7613" y="40.1408" clip-path="url(#clipPath2)" fill="rgb(178,142,0)" width="1" height="41" stroke="none"/>
    </g>
    <g font-size="16px" stroke-linecap="butt" transform="matrix(1,0,0,1,15,15)" text-rendering="geometricPrecision" font-family="sans-serif" shape-rendering="geometricPrecision" stroke-miterlimit="1.45">
      <text x="334.6213" xml:space="preserve" y="67.3488" clip-path="url(#clipPath2)" stroke="none">Cortador</text>
    </g>
    <g fill="rgb(255,204,0)" text-rendering="geometricPrecision" shape-rendering="geometricPrecision" transform="matrix(1,0,0,1,15,15)" stroke="rgb(255,204,0)">
      <rect x="138.5754" width="127" height="42" y="0" clip-path="url(#clipPath2)" stroke="none"/>
      <rect x="138.5754" y="0" clip-path="url(#clipPath2)" fill="yellow" width="1" height="42" stroke="none"/>
      <rect x="139.5754" y="0" clip-path="url(#clipPath2)" fill="yellow" width="125" height="1" stroke="none"/>
      <rect x="139.5754" y="41" clip-path="url(#clipPath2)" fill="rgb(178,142,0)" width="126" height="1" stroke="none"/>
      <rect x="264.5754" y="0" clip-path="url(#clipPath2)" fill="rgb(178,142,0)" width="1" height="41" stroke="none"/>
    </g>
    <g font-size="16px" stroke-linecap="butt" transform="matrix(1,0,0,1,15,15)" text-rendering="geometricPrecision" font-family="sans-serif" shape-rendering="geometricPrecision" stroke-miterlimit="1.45">
      <text x="155.4593" xml:space="preserve" y="27.208" clip-path="url(#clipPath2)" stroke="none">Alimentador</text>
    </g>
    <g fill="rgb(255,204,0)" text-rendering="geometricPrecision" shape-rendering="geometricPrecision" transform="matrix(1,0,0,1,15,15)" stroke="rgb(255,204,0)">
      <rect x="348.5683" width="93" height="42" y="371.0187" clip-path="url(#clipPath2)" stroke="none"/>
      <rect x="348.5683" y="371.0187" clip-path="url(#clipPath2)" fill="yellow" width="1" height="42" stroke="none"/>
      <rect x="349.5683" y="371.0187" clip-path="url(#clipPath2)" fill="yellow" width="91" height="1" stroke="none"/>
      <rect x="349.5683" y="412.0187" clip-path="url(#clipPath2)" fill="rgb(178,142,0)" width="92" height="1" stroke="none"/>
      <rect x="440.5683" y="371.0187" clip-path="url(#clipPath2)" fill="rgb(178,142,0)" width="1" height="41" stroke="none"/>
    </g>
    <g font-size="16px" stroke-linecap="butt" transform="matrix(1,0,0,1,15,15)" text-rendering="geometricPrecision" font-family="sans-serif" shape-rendering="geometricPrecision" stroke-miterlimit="1.45">
      <text x="363.3562" xml:space="preserve" y="398.2267" clip-path="url(#clipPath2)" stroke="none">Apilador</text>
    </g>
    <g fill="rgb(255,204,0)" text-rendering="geometricPrecision" shape-rendering="geometricPrecision" transform="matrix(1,0,0,1,15,15)" stroke="rgb(255,204,0)">
      <rect x="0" width="119" height="42" y="123.968" clip-path="url(#clipPath2)" stroke="none"/>
      <rect x="0" y="123.968" clip-path="url(#clipPath2)" fill="yellow" width="1" height="42" stroke="none"/>
      <rect x="1" y="123.968" clip-path="url(#clipPath2)" fill="yellow" width="117" height="1" stroke="none"/>
      <rect x="1" y="164.968" clip-path="url(#clipPath2)" fill="rgb(178,142,0)" width="118" height="1" stroke="none"/>
      <rect x="118" y="123.968" clip-path="url(#clipPath2)" fill="rgb(178,142,0)" width="1" height="41" stroke="none"/>
    </g>
    <g font-size="16px" stroke-linecap="butt" transform="matrix(1,0,0,1,15,15)" text-rendering="geometricPrecision" font-family="sans-serif" shape-rendering="geometricPrecision" stroke-miterlimit="1.45">
      <text x="14.9239" xml:space="preserve" y="151.1761" clip-path="url(#clipPath2)" stroke="none">Engrapador</text>
      <path fill="none" d="M416.7231 223.7394 L301.9402 233.0388" clip-path="url(#clipPath2)"/>
      <path d="M293.9664 233.6848 L306.3309 237.6995 L302.937 232.9581 L305.5234 227.7321 Z" stroke="none" clip-path="url(#clipPath2)"/>
      <path fill="none" d="M192.979 466.1146 L250.2759 265.243" clip-path="url(#clipPath2)"/>
      <path d="M252.4703 257.5499 L244.3704 267.7181 L250.0016 266.2047 L253.9869 270.4611 Z" stroke="none" clip-path="url(#clipPath2)"/>
      <path fill="none" d="M108.1193 287.8153 L215.3926 251.2433" clip-path="url(#clipPath2)"/>
      <path d="M222.9647 248.6619 L209.9932 247.8016 L214.4461 251.566 L213.22 257.2666 Z" stroke="none" clip-path="url(#clipPath2)"/>
      <path fill="none" d="M355.1122 82.1476 L275.8454 208.7824" clip-path="url(#clipPath2)"/>
      <path d="M271.6007 215.5635 L282.2058 208.0447 L276.3759 207.9348 L273.7295 202.739 Z" stroke="none" clip-path="url(#clipPath2)"/>
      <path fill="none" d="M207.5745 42.0246 L250.9295 207.782" clip-path="url(#clipPath2)"/>
      <path d="M252.9538 215.5217 L254.7546 202.647 L250.6764 206.8146 L245.08 205.1774 Z" stroke="none" clip-path="url(#clipPath2)"/>
      <path fill="none" d="M376.6077 371.0115 L282.17 263.546" clip-path="url(#clipPath2)"/>
      <path d="M276.8892 257.5367 L281.0546 269.8512 L282.8301 264.2972 L288.5663 263.2502 Z" stroke="none" clip-path="url(#clipPath2)"/>
      <path fill="none" d="M105.1348 165.9769 L215.6669 216.8625" clip-path="url(#clipPath2)"/>
      <path d="M222.9338 220.2079 L214.1244 210.6479 L214.7586 216.4443 L209.9426 219.7316 Z" stroke="none" clip-path="url(#clipPath2)"/>
    </g>
  </g>
</svg>
