<?xml version="1.0" encoding="UTF-8"?><svg xmlns="http://www.w3.org/2000/svg" xmlns:xlink="http://www.w3.org/1999/xlink" fill-opacity="1" color-rendering="auto" color-interpolation="auto" text-rendering="auto" stroke="black" stroke-linecap="square" width="845" stroke-miterlimit="10" shape-rendering="auto" stroke-opacity="1" fill="black" stroke-dasharray="none" font-weight="normal" stroke-width="1" height="517" font-family="'Dialog'" font-style="normal" stroke-linejoin="miter" font-size="12px" stroke-dashoffset="0" image-rendering="auto">
  <!--Generated by ySVG 2.6-->
  <defs id="genericDefs"/>
  <g>
    <defs id="defs1">
      <clipPath clipPathUnits="userSpaceOnUse" id="clipPath1">
        <path d="M0 0 L845 0 L845 517 L0 517 L0 0 Z"/>
      </clipPath>
      <clipPath clipPathUnits="userSpaceOnUse" id="clipPath2">
        <path d="M14 166 L859 166 L859 683 L14 683 L14 166 Z"/>
      </clipPath>
      <clipPath clipPathUnits="userSpaceOnUse" id="clipPath3">
        <path d="M316 257 L316 310 L471 310 L471 257 Z"/>
      </clipPath>
      <clipPath clipPathUnits="userSpaceOnUse" id="clipPath4">
        <path d="M491 306 L491 359 L700 359 L700 306 Z"/>
      </clipPath>
      <clipPath clipPathUnits="userSpaceOnUse" id="clipPath5">
        <path d="M104 281 L104 340 L296 340 L296 281 Z"/>
      </clipPath>
      <clipPath clipPathUnits="userSpaceOnUse" id="clipPath6">
        <path d="M139 412 L139 468 L296 468 L296 412 Z"/>
      </clipPath>
      <clipPath clipPathUnits="userSpaceOnUse" id="clipPath7">
        <path d="M209 503 L209 582 L422 582 L422 503 Z"/>
      </clipPath>
      <clipPath clipPathUnits="userSpaceOnUse" id="clipPath8">
        <path d="M452 508 L452 561 L620 561 L620 508 Z"/>
      </clipPath>
      <clipPath clipPathUnits="userSpaceOnUse" id="clipPath9">
        <path d="M510 400 L510 474 L719 474 L719 400 Z"/>
      </clipPath>
    </defs>
    <g fill="white" text-rendering="geometricPrecision" shape-rendering="geometricPrecision" transform="translate(-14,-166)" stroke="white">
      <rect x="14" width="845" height="517" y="166" clip-path="url(#clipPath2)" stroke="none"/>
    </g>
    <g fill="rgb(255,204,0)" text-rendering="geometricPrecision" shape-rendering="geometricPrecision" transform="matrix(1,0,0,1,-14,-166)" stroke="rgb(255,204,0)">
      <rect x="342.9625" width="100" height="53" y="370.8747" clip-path="url(#clipPath2)" stroke="none"/>
      <rect x="342.9625" y="370.8747" clip-path="url(#clipPath2)" fill="yellow" width="1" height="53" stroke="none"/>
      <rect x="343.9625" y="370.8747" clip-path="url(#clipPath2)" fill="yellow" width="98" height="1" stroke="none"/>
      <rect x="343.9625" y="422.8747" clip-path="url(#clipPath2)" fill="rgb(178,142,0)" width="99" height="1" stroke="none"/>
      <rect x="441.9625" y="370.8747" clip-path="url(#clipPath2)" fill="rgb(178,142,0)" width="1" height="52" stroke="none"/>
    </g>
    <g font-size="24px" stroke-linecap="butt" transform="matrix(1,0,0,1,-14,-166)" text-rendering="geometricPrecision" font-family="sans-serif" shape-rendering="geometricPrecision" font-weight="bold" stroke-miterlimit="1.45">
      <text x="358.9786" xml:space="preserve" y="406.6867" clip-path="url(#clipPath2)" stroke="none">Tarea</text>
    </g>
    <g fill="rgb(255,204,0)" text-rendering="geometricPrecision" shape-rendering="geometricPrecision" transform="matrix(1,0,0,1,-14,-166)" stroke="rgb(255,204,0)">
      <rect x="670.1614" width="173" height="47" y="508.1553" clip-path="url(#clipPath2)" stroke="none"/>
      <rect x="670.1614" y="508.1553" clip-path="url(#clipPath2)" fill="yellow" width="1" height="47" stroke="none"/>
      <rect x="671.1614" y="508.1553" clip-path="url(#clipPath2)" fill="yellow" width="171" height="1" stroke="none"/>
      <rect x="671.1614" y="554.1553" clip-path="url(#clipPath2)" fill="rgb(178,142,0)" width="172" height="1" stroke="none"/>
      <rect x="842.1614" y="508.1553" clip-path="url(#clipPath2)" fill="rgb(178,142,0)" width="1" height="46" stroke="none"/>
    </g>
    <g font-size="16px" stroke-linecap="butt" transform="matrix(1,0,0,1,-14,-166)" text-rendering="geometricPrecision" font-family="sans-serif" shape-rendering="geometricPrecision" stroke-miterlimit="1.45">
      <text x="677.9252" xml:space="preserve" y="537.8633" clip-path="url(#clipPath2)" stroke="none">Trayectoria del Papel</text>
    </g>
    <g fill="rgb(255,204,0)" text-rendering="geometricPrecision" shape-rendering="geometricPrecision" transform="matrix(1,0,0,1,-14,-166)" stroke="rgb(255,204,0)">
      <rect x="144.3217" width="205" height="42" y="625.7315" clip-path="url(#clipPath2)" stroke="none"/>
      <rect x="144.3217" y="625.7315" clip-path="url(#clipPath2)" fill="yellow" width="1" height="42" stroke="none"/>
      <rect x="145.3217" y="625.7315" clip-path="url(#clipPath2)" fill="yellow" width="203" height="1" stroke="none"/>
      <rect x="145.3217" y="666.7315" clip-path="url(#clipPath2)" fill="rgb(178,142,0)" width="204" height="1" stroke="none"/>
      <rect x="348.3217" y="625.7315" clip-path="url(#clipPath2)" fill="rgb(178,142,0)" width="1" height="41" stroke="none"/>
    </g>
    <g font-size="16px" stroke-linecap="butt" transform="matrix(1,0,0,1,-14,-166)" text-rendering="geometricPrecision" font-family="sans-serif" shape-rendering="geometricPrecision" stroke-miterlimit="1.45">
      <text x="160.7015" xml:space="preserve" y="652.9395" clip-path="url(#clipPath2)" stroke="none">Receptor de Fotografía</text>
    </g>
    <g fill="rgb(255,204,0)" text-rendering="geometricPrecision" shape-rendering="geometricPrecision" transform="matrix(1,0,0,1,-14,-166)" stroke="rgb(255,204,0)">
      <rect x="29.1616" width="80" height="42" y="420.8192" clip-path="url(#clipPath2)" stroke="none"/>
      <rect x="29.1616" y="420.8192" clip-path="url(#clipPath2)" fill="yellow" width="1" height="42" stroke="none"/>
      <rect x="30.1616" y="420.8192" clip-path="url(#clipPath2)" fill="yellow" width="78" height="1" stroke="none"/>
      <rect x="30.1616" y="461.8192" clip-path="url(#clipPath2)" fill="rgb(178,142,0)" width="79" height="1" stroke="none"/>
      <rect x="108.1616" y="420.8192" clip-path="url(#clipPath2)" fill="rgb(178,142,0)" width="1" height="41" stroke="none"/>
    </g>
    <g font-size="16px" stroke-linecap="butt" transform="matrix(1,0,0,1,-14,-166)" text-rendering="geometricPrecision" font-family="sans-serif" shape-rendering="geometricPrecision" stroke-miterlimit="1.45">
      <text x="37.6496" xml:space="preserve" y="448.0273" clip-path="url(#clipPath2)" stroke="none">Inversor</text>
    </g>
    <g fill="rgb(255,204,0)" text-rendering="geometricPrecision" shape-rendering="geometricPrecision" transform="matrix(1,0,0,1,-14,-166)" stroke="rgb(255,204,0)">
      <rect x="347.575" width="93" height="42" y="181.2819" clip-path="url(#clipPath2)" stroke="none"/>
      <rect x="347.575" y="181.2819" clip-path="url(#clipPath2)" fill="yellow" width="1" height="42" stroke="none"/>
      <rect x="348.575" y="181.2819" clip-path="url(#clipPath2)" fill="yellow" width="91" height="1" stroke="none"/>
      <rect x="348.575" y="222.2819" clip-path="url(#clipPath2)" fill="rgb(178,142,0)" width="92" height="1" stroke="none"/>
      <rect x="439.575" y="181.2819" clip-path="url(#clipPath2)" fill="rgb(178,142,0)" width="1" height="41" stroke="none"/>
    </g>
    <g font-size="16px" stroke-linecap="butt" transform="matrix(1,0,0,1,-14,-166)" text-rendering="geometricPrecision" font-family="sans-serif" shape-rendering="geometricPrecision" stroke-miterlimit="1.45">
      <text x="360.4349" xml:space="preserve" y="208.4899" clip-path="url(#clipPath2)" stroke="none">Cortador</text>
    </g>
    <g fill="rgb(255,204,0)" text-rendering="geometricPrecision" shape-rendering="geometricPrecision" transform="matrix(1,0,0,1,-14,-166)" stroke="rgb(255,204,0)">
      <rect x="628.1333" width="127" height="42" y="237.0906" clip-path="url(#clipPath2)" stroke="none"/>
      <rect x="628.1333" y="237.0906" clip-path="url(#clipPath2)" fill="yellow" width="1" height="42" stroke="none"/>
      <rect x="629.1333" y="237.0906" clip-path="url(#clipPath2)" fill="yellow" width="125" height="1" stroke="none"/>
      <rect x="629.1333" y="278.0906" clip-path="url(#clipPath2)" fill="rgb(178,142,0)" width="126" height="1" stroke="none"/>
      <rect x="754.1333" y="237.0906" clip-path="url(#clipPath2)" fill="rgb(178,142,0)" width="1" height="41" stroke="none"/>
    </g>
    <g font-size="16px" stroke-linecap="butt" transform="matrix(1,0,0,1,-14,-166)" text-rendering="geometricPrecision" font-family="sans-serif" shape-rendering="geometricPrecision" stroke-miterlimit="1.45">
      <text x="645.0172" xml:space="preserve" y="264.2986" clip-path="url(#clipPath2)" stroke="none">Alimentador</text>
    </g>
    <g fill="rgb(255,204,0)" text-rendering="geometricPrecision" shape-rendering="geometricPrecision" transform="matrix(1,0,0,1,-14,-166)" stroke="rgb(255,204,0)">
      <rect x="510.1959" width="93" height="42" y="612.4877" clip-path="url(#clipPath2)" stroke="none"/>
      <rect x="510.1959" y="612.4877" clip-path="url(#clipPath2)" fill="yellow" width="1" height="42" stroke="none"/>
      <rect x="511.1959" y="612.4877" clip-path="url(#clipPath2)" fill="yellow" width="91" height="1" stroke="none"/>
      <rect x="511.1959" y="653.4877" clip-path="url(#clipPath2)" fill="rgb(178,142,0)" width="92" height="1" stroke="none"/>
      <rect x="602.1959" y="612.4877" clip-path="url(#clipPath2)" fill="rgb(178,142,0)" width="1" height="41" stroke="none"/>
    </g>
    <g font-size="16px" stroke-linecap="butt" transform="matrix(1,0,0,1,-14,-166)" text-rendering="geometricPrecision" font-family="sans-serif" shape-rendering="geometricPrecision" stroke-miterlimit="1.45">
      <text x="524.9839" xml:space="preserve" y="639.6957" clip-path="url(#clipPath2)" stroke="none">Apilador</text>
    </g>
    <g fill="rgb(255,204,0)" text-rendering="geometricPrecision" shape-rendering="geometricPrecision" transform="matrix(1,0,0,1,-14,-166)" stroke="rgb(255,204,0)">
      <rect x="84.2063" width="119" height="42" y="215.907" clip-path="url(#clipPath2)" stroke="none"/>
      <rect x="84.2063" y="215.907" clip-path="url(#clipPath2)" fill="yellow" width="1" height="42" stroke="none"/>
      <rect x="85.2063" y="215.907" clip-path="url(#clipPath2)" fill="yellow" width="117" height="1" stroke="none"/>
      <rect x="85.2063" y="256.907" clip-path="url(#clipPath2)" fill="rgb(178,142,0)" width="118" height="1" stroke="none"/>
      <rect x="202.2063" y="215.907" clip-path="url(#clipPath2)" fill="rgb(178,142,0)" width="1" height="41" stroke="none"/>
    </g>
    <g font-size="16px" stroke-linecap="butt" transform="matrix(1,0,0,1,-14,-166)" text-rendering="geometricPrecision" font-family="sans-serif" shape-rendering="geometricPrecision" stroke-miterlimit="1.45">
      <text x="99.1302" xml:space="preserve" y="243.115" clip-path="url(#clipPath2)" stroke="none">Engrapador</text>
      <rect fill="none" x="316.7379" width="155.4491" height="53" y="257.7551" clip-path="url(#clipPath2)"/>
      <text x="376.9004" xml:space="preserve" font-size="12px" y="275.5832" clip-path="url(#clipPath3)" stroke="none">&lt;&lt;A&gt;&gt;</text>
      <text x="335.7674" font-size="13px" y="301.9962" clip-path="url(#clipPath3)" stroke="none" font-weight="bold" xml:space="preserve">Tarea de Cortador</text>
      <rect fill="none" x="491.9625" width="209.8446" height="53" y="306.2819" clip-path="url(#clipPath2)"/>
      <text x="579.3226" xml:space="preserve" font-size="12px" y="324.11" clip-path="url(#clipPath4)" stroke="none">&lt;&lt;A&gt;&gt;</text>
      <text x="526.3597" font-size="13px" y="350.523" clip-path="url(#clipPath4)" stroke="none" font-weight="bold" xml:space="preserve">Tarea de Alimentador</text>
      <rect fill="none" x="104.918" width="192.0445" height="59" y="281.8747" clip-path="url(#clipPath2)"/>
      <text x="183.3781" xml:space="preserve" font-size="12px" y="299.7028" clip-path="url(#clipPath5)" stroke="none">&lt;&lt;A&gt;&gt;</text>
      <text x="133.1647" font-size="13px" y="326.1159" clip-path="url(#clipPath5)" stroke="none" font-weight="bold" xml:space="preserve">Tarea de Engrapador</text>
      <rect fill="none" x="139.1616" width="157.8008" height="56" y="412.3192" clip-path="url(#clipPath2)"/>
      <text x="200.4999" xml:space="preserve" font-size="12px" y="430.1473" clip-path="url(#clipPath6)" stroke="none">&lt;&lt;A&gt;&gt;</text>
      <text x="160.823" font-size="13px" y="456.5604" clip-path="url(#clipPath6)" stroke="none" font-weight="bold" xml:space="preserve">Tarea de Inversor</text>
      <rect fill="none" x="209.2014" width="213.5197" height="79.0052" y="503.2382" clip-path="url(#clipPath2)"/>
      <text x="298.3991" xml:space="preserve" font-size="12px" y="521.0663" clip-path="url(#clipPath7)" stroke="none">&lt;&lt;A&gt;&gt;</text>
      <text x="287.9072" font-size="13px" y="547.4794" clip-path="url(#clipPath7)" stroke="none" font-weight="bold" xml:space="preserve">Tarea de</text>
      <text x="241.5491" font-size="13px" y="565.1854" clip-path="url(#clipPath7)" stroke="none" font-weight="bold" xml:space="preserve">Receptor de Fotografía</text>
      <rect fill="none" x="452.7211" width="168.5372" height="53" y="508.1553" clip-path="url(#clipPath2)"/>
      <text x="519.4275" xml:space="preserve" font-size="12px" y="525.9834" clip-path="url(#clipPath8)" stroke="none">&lt;&lt;A&gt;&gt;</text>
      <text x="479.6661" font-size="13px" y="552.3964" clip-path="url(#clipPath8)" stroke="none" font-weight="bold" xml:space="preserve">Tarea de Apilador</text>
      <rect fill="none" x="510.1959" width="209.8446" height="74.3368" y="400.9523" clip-path="url(#clipPath2)"/>
      <text x="597.5562" xml:space="preserve" font-size="12px" y="418.7804" clip-path="url(#clipPath9)" stroke="none">&lt;&lt;A&gt;&gt;</text>
      <text x="587.0642" font-size="13px" y="445.1935" clip-path="url(#clipPath9)" stroke="none" font-weight="bold" xml:space="preserve">Tarea de</text>
      <text x="546.6277" font-size="13px" y="462.8995" clip-path="url(#clipPath9)" stroke="none" font-weight="bold" xml:space="preserve">Trayectoria del Papel</text>
      <path fill="none" d="M393.3137 370.89 L393.9119 325.7773" clip-path="url(#clipPath2)"/>
    </g>
    <g stroke-linecap="butt" transform="matrix(1,0,0,1,-14,-166)" fill="white" text-rendering="geometricPrecision" shape-rendering="geometricPrecision" stroke="white" stroke-miterlimit="1.45">
      <path d="M394.1108 310.7786 L387.8991 326.6976 L399.8981 326.8567 Z" stroke="none" clip-path="url(#clipPath2)"/>
      <path fill="none" d="M394.1108 310.7786 L387.8991 326.6976 L399.8981 326.8567 Z" clip-path="url(#clipPath2)" stroke="black"/>
      <path fill="none" d="M394.1743 223.2955 L394.2993 249.7342" clip-path="url(#clipPath2)" stroke="black"/>
      <path fill="black" d="M394.3371 257.7341 L399.2803 245.7106 L394.2946 248.7342 L389.2804 245.7579 Z" clip-path="url(#clipPath2)" stroke="none"/>
      <path fill="none" d="M442.9722 381.534 L498.9026 363.818" clip-path="url(#clipPath2)" stroke="black"/>
      <path d="M513.2023 359.2885 L496.1374 358.4001 L499.761 369.8399 Z" clip-path="url(#clipPath2)" stroke="none"/>
      <path fill="none" d="M513.2023 359.2885 L496.1374 358.4001 L499.761 369.8399 Z" clip-path="url(#clipPath2)" stroke="black"/>
      <path fill="none" d="M665.0084 279.0793 L636.7968 301.3188" clip-path="url(#clipPath2)" stroke="black"/>
      <path fill="black" d="M630.5142 306.2715 L643.0334 302.7691 L637.5821 300.6997 L636.8427 294.9159 Z" clip-path="url(#clipPath2)" stroke="none"/>
      <path fill="none" d="M342.9645 374.9824 L280.4757 346.9959" clip-path="url(#clipPath2)" stroke="black"/>
      <path d="M266.786 340.8647 L278.9359 352.8805 L283.8408 341.9287 Z" clip-path="url(#clipPath2)" stroke="none"/>
      <path fill="none" d="M266.786 340.8647 L278.9359 352.8805 L283.8408 341.9287 Z" clip-path="url(#clipPath2)" stroke="black"/>
      <path fill="none" d="M159.8313 257.8874 L173.4031 275.5458" clip-path="url(#clipPath2)" stroke="black"/>
      <path fill="black" d="M178.2782 281.8888 L174.9299 269.3274 L172.7937 274.7529 L167.0012 275.4212 Z" clip-path="url(#clipPath2)" stroke="none"/>
      <path fill="none" d="M342.9604 409.6521 L311.5141 417.3733" clip-path="url(#clipPath2)" stroke="black"/>
      <path d="M296.9468 420.9501 L313.916 422.9618 L311.0546 411.308 Z" clip-path="url(#clipPath2)" stroke="none"/>
      <path fill="none" d="M296.9468 420.9501 L313.916 422.9618 L311.0546 411.308 Z" clip-path="url(#clipPath2)" stroke="black"/>
      <path fill="none" d="M109.1859 441.416 L131.1432 441.1949" clip-path="url(#clipPath2)" stroke="black"/>
      <path fill="black" d="M139.1428 441.1143 L127.093 436.2354 L130.1432 441.2049 L127.1938 446.2349 Z" clip-path="url(#clipPath2)" stroke="none"/>
      <path fill="none" d="M378.9195 423.8856 L343.9021 489.993" clip-path="url(#clipPath2)" stroke="black"/>
      <path d="M336.8807 503.2482 L349.6722 491.9178 L339.0681 486.3008 Z" clip-path="url(#clipPath2)" stroke="none"/>
      <path fill="none" d="M336.8807 503.2482 L349.6722 491.9178 L339.0681 486.3008 Z" clip-path="url(#clipPath2)" stroke="black"/>
      <path fill="none" d="M260.7813 625.7354 L285.2622 588.9143" clip-path="url(#clipPath2)" stroke="black"/>
      <path fill="black" d="M289.6915 582.2524 L278.8839 589.477 L284.7085 589.7471 L287.2113 595.0136 Z" clip-path="url(#clipPath2)" stroke="none"/>
      <path fill="none" d="M420.7763 423.8857 L498.3552 497.8306" clip-path="url(#clipPath2)" stroke="black"/>
      <path d="M509.2131 508.1799 L501.771 492.7975 L493.4916 501.4838 Z" clip-path="url(#clipPath2)" stroke="none"/>
      <path fill="none" d="M509.2131 508.1799 L501.771 492.7975 L493.4916 501.4838 Z" clip-path="url(#clipPath2)" stroke="black"/>
      <path fill="none" d="M552.5103 612.4954 L543.8361 568.9924" clip-path="url(#clipPath2)" stroke="black"/>
      <path fill="black" d="M542.2718 561.1468 L539.7148 573.8928 L544.0317 569.973 L549.5217 571.9374 Z" clip-path="url(#clipPath2)" stroke="none"/>
      <path fill="none" d="M442.9421 406.5416 L495.4025 416.1635" clip-path="url(#clipPath2)" stroke="black"/>
      <path d="M510.1564 418.8695 L495.5013 410.0815 L493.3365 421.8846 Z" clip-path="url(#clipPath2)" stroke="none"/>
      <path fill="none" d="M510.1564 418.8695 L495.5013 410.0815 L493.3365 421.8846 Z" clip-path="url(#clipPath2)" stroke="black"/>
      <path fill="none" d="M721.1028 508.1575 L678.0193 479.687" clip-path="url(#clipPath2)" stroke="black"/>
      <path fill="black" d="M671.3449 475.2765 L678.5999 486.0638 L678.8536 480.2383 L684.113 477.7208 Z" clip-path="url(#clipPath2)" stroke="none"/>
    </g>
  </g>
</svg>
